<?xml version="1.0" standalone="no"?>
<!DOCTYPE svg PUBLIC "-//W3C//DTD SVG 1.1//EN" "http://www.w3.org/Graphics/SVG/1.1/DTD/svg11.dtd" >
<svg xmlns="http://www.w3.org/2000/svg">
<metadata>
Created by FontForge 20120731 at Fri Jun 23 09:58:54 2017
 By admin
</metadata>
<defs>
<font id="iconfont" horiz-adv-x="1024" >
  <font-face 
    font-family="iconfont"
    font-weight="500"
    font-stretch="normal"
    units-per-em="1024"
    panose-1="2 0 6 3 0 0 0 0 0 0"
    ascent="896"
    descent="-128"
    x-height="792"
    bbox="44 -31 956 792"
    underline-thickness="0"
    underline-position="0"
    unicode-range="U+0078-E6F5"
  />
<missing-glyph 
 />
    <glyph glyph-name=".notdef" 
 />
    <glyph glyph-name=".notdef" 
 />
    <glyph glyph-name=".null" horiz-adv-x="0" 
 />
    <glyph glyph-name="nonmarkingreturn" horiz-adv-x="341" 
 />
    <glyph glyph-name="x" unicode="x" horiz-adv-x="1001" 
d="M281 543q-27 -1 -53 -1h-83q-18 0 -36.5 -6t-32.5 -18.5t-23 -32t-9 -45.5v-76h912v41q0 16 -0.5 30t-0.5 18q0 13 -5 29t-17 29.5t-31.5 22.5t-49.5 9h-133v-97h-438v97zM955 310v-52q0 -23 0.5 -52t0.5 -58t-10.5 -47.5t-26 -30t-33 -16t-31.5 -4.5q-14 -1 -29.5 -0.5
t-29.5 0.5h-32l-45 128h-439l-44 -128h-29h-34q-20 0 -45 1q-25 0 -41 9.5t-25.5 23t-13.5 29.5t-4 30v167h911zM163 247q-12 0 -21 -8.5t-9 -21.5t9 -21.5t21 -8.5q13 0 22 8.5t9 21.5t-9 21.5t-22 8.5zM316 123q-8 -26 -14 -48q-5 -19 -10.5 -37t-7.5 -25t-3 -15t1 -14.5
t9.5 -10.5t21.5 -4h37h67h81h80h64h36q23 0 34 12t2 38q-5 13 -9.5 30.5t-9.5 34.5q-5 19 -11 39h-368zM336 498v228q0 11 2.5 23t10 21.5t20.5 15.5t34 6h188q31 0 51.5 -14.5t20.5 -52.5v-227h-327z" />
    <glyph glyph-name="delete" unicode="&#xe6f5;" 
d="M685 188q-7 0 -11 5l-340 340q-5 4 -5 11t5 12t11.5 5t11.5 -5l340 -340q5 -5 5 -11.5t-5 -11.5t-12 -5zM345.5 188q-6.5 0 -11.5 5t-5 11.5t5 11.5l340 340q4 5 11 5t12 -5t5 -12t-5 -11l-340 -340q-5 -5 -11.5 -5z" />
    <glyph glyph-name="report" unicode="&#xe601;" 
d="M532 406l-175 268q97 63 212 49t196 -98q48 -52 70 -118zM476 423l-297 118q26 68 77 116q27 24 43 34zM524 362l304 99q29 -89 6 -179t-90 -154q-97 -91 -229 -86.5t-223 101.5q-64 68 -81.5 159t16.5 178z" />
    <glyph glyph-name="financial" unicode="&#xe602;" 
d="M751 555h-476q-13 0 -23 9t-10 23q0 13 9.5 23t23.5 10h476q13 0 22.5 -9.5t9.5 -23.5q-1 -14 -10 -23t-22 -9zM703 657h-382q-13 0 -23 9.5t-10 22.5q0 14 9.5 23.5t23.5 9.5h386q13 0 22.5 -9.5t9.5 -23.5q-1 -13 -11 -22.5t-25 -9.5zM853 418q0 37 -25.5 63t-62.5 26
h-506q-37 0 -62.5 -26t-25.5 -63v-283q0 -37 25.5 -63t62.5 -26h507q37 0 63 26t26 63zM539 305h62q11 0 20 -7.5t9 -19t-9 -19.5t-20 -8h-63v-33h61q12 0 20.5 -7.5t8.5 -19t-8.5 -19.5t-20.5 -8h-61v-33q0 -11 -8 -20t-20 -9q-11 0 -19 8.5t-8 20.5v33h-61q-12 0 -20.5 8
t-8.5 19.5t8.5 19t20.5 7.5h61v33h-61q-12 0 -20.5 8t-8.5 19.5t8.5 19t20.5 7.5h61v12l-84 82q-9 8 -9 20t9 19.5t20.5 7.5t20.5 -7l70 -69l70 69q9 7 20.5 7t20.5 -7.5t9 -19.5t-9 -20l-83 -82z" />
    <glyph glyph-name="supplychain" unicode="&#xe603;" 
d="M816 447l-62 -61q-27 -28 -68 -35t-77 9l145 145q13 13 13 30t-13 30l-59 60q-13 12 -30 12t-30 -12l-145 -145q-19 34 -12 75t37 70l62 61q37 37 89.5 37t91.5 -37l59 -60q38 -35 37.5 -88t-38.5 -91zM396 266q-13 13 -13 30t13 30l179 181q13 13 30 13t30 -13t13 -30
t-13 -30l-181 -181q-13 -13 -30.5 -13t-27.5 13zM275 205l60 -60q12 -13 29 -13t30 13l145 145q19 -34 12 -75t-37 -70l-58 -63q-37 -37 -90 -37t-91 37l-67 66q-37 38 -37 90.5t37 90.5l67 58q28 28 68.5 35t76.5 -9l-145 -145q-13 -14 -13 -32t13 -31z" />
    <glyph glyph-name="membercard" unicode="&#xe604;" 
d="M649 399h-14v-59q7 0 14 -2q44 -5 44 31q-2 30 -44 30zM853 631q0 18 -12 30.5t-30 12.5h-598q-18 0 -30 -12.5t-12 -30.5v-59h682v59zM171 538v-367q0 -18 12 -30.5t30 -12.5h598q18 0 30 12.5t12 30.5v367h-682zM411 225h-49l-77 210h50l54 -165h2l54 165h45zM553 225
h-46v208h46v-208zM667 305h-32v-80h-44v208h64q86 0 86 -64q-6 -61 -74 -64z" />
    <glyph glyph-name="performance" unicode="&#xe605;" 
d="M372 70q-7 0 -12 4.5t-5 10.5q0 7 5 11.5t12 4.5h123v177q-38 4 -75.5 25t-66.5 55q-56 68 -56 132v7q-3 3 -51.5 51t-61.5 65q-23 31 -8 59q14 26 44 26h586q32 0 42 -26q13 -28 -8 -61q-21 -26 -113 -114v-5q0 -40 -24.5 -86.5t-71 -83t-100.5 -42.5v-178h124
q7 0 11.5 -4.5t4.5 -10.5t-4.5 -10.5t-11.5 -4.5l-283 -2v0zM725 541q75 72 87 90q11 17 7 28q-4 7 -13 7h-81v-125zM220 666q-11 0 -13 -9q-6 -12 6 -27q21 -27 87 -91v125z" />
    <glyph glyph-name="member" unicode="&#xe606;" 
d="M560 442q-29 -12 -57 -34q-24 -20 -44 -48q-20 -32 -29 -60q-10 -33 -10 -68q0 -28 8 -60q7 -22 23 -54h-18q-25 0 -40 1q-14 0 -48 4q-9 1 -25 2.5t-25 2.5q-17 2 -44 5q-22 3 -34 7q-15 3 -17 7q-8 5 -11 30q-3 31 4 65q2 16 10 26q5 7 19 17q7 5 24 12q4 2 13.5 4.5
t13.5 4t13.5 4t13.5 4.5q17 7 24 12q13 8 20.5 15.5t10.5 15.5q3 10 3 15v17q0 15 -10 22q-2 3 -8.5 8.5t-10.5 8.5q-6 7 -8 12q-4 5 -7 16q-3 10 -7 18q-2 0 -8 4l-9 8q-4 4 -7 16q-3 13 -1 19q0 5 3 15q3 8 9 12q0 31 1 46q2 14 9 41q5 23 19 39q11 16 25 27q9 7 29 18
q21 6 31 8t29 2q14 0 34 -4q12 -3 32 -10q11 -5 28 -15q4 -3 19 -17q18 -24 22 -43q7 -23 10 -44q3 -31 3 -50q4 -2 7.5 -8.5t3.5 -10.5q2 -7 0 -17q0 -13 -5 -20q-7 -10 -9 -12q-4 -4 -12 -7q0 -1 -1 -4t-1 -4l-3 -9q-1 -3 -5 -12zM647 422q40 0 73 -16q33 -14 60 -41
q26 -25 41 -61t15 -74q0 -40 -15 -73q-13 -31 -41 -61q-25 -25 -60 -41q-36 -16 -73 -16q-39 0 -75 16q-33 14 -60 41q-26 25 -41 61t-15 73q0 41 15 74q13 31 41 61q25 25 60 41q36 16 75 16zM758 268q3 14 -4 22q-8 12 -18 14q-12 5 -23 0q-11 -3 -17 -19q-3 -14 -5 -19
t-5 -18.5t-7 -20.5q-1 -3 -4 -11.5t-6 -14.5q-5 -15 -17 -15t-17 14q-5 8 -12 25q-9 22 -12 28q-7 17 -10 23q-2 4 -4 10t-3 8q-5 10 -15 10q-16 0 -23 -4q-12 -6 -17 -13q-7 -10 -1 -21q6 -17 10 -27q7 -21 12 -31q1 -5 5.5 -15t6.5 -16q5 -15 10 -25q11 -25 27 -34
q21 -12 40 -12q16 0 39 8q18 11 27 29q3 5 7 16.5t7 16.5q2 6 6.5 17t6.5 17q2 5 12 31q-1 8 4 27z" />
    <glyph glyph-name="store" unicode="&#xe607;" 
d="M792 589h-563l-58 -154q0 -34 24.5 -58.5t60.5 -24.5t60.5 24.5t24.5 58.5q0 -34 25 -58.5t60.5 -24.5t60.5 24.5t25 58.5q0 -34 25 -58.5t60.5 -24.5t60.5 24.5t25 58.5q0 -34 24.5 -58.5t60.5 -24.5t60.5 24.5t24.5 58.5zM746 326v-195h-468v195h-49v-205q0 -13 12 -26
t25 -13h492q13 0 25 12.5t12 26.5v205h-49zM792 591zM268 628h488q13 0 21 8.5t8 20.5q0 13 -8.5 21t-20.5 8h-488q-13 0 -21 -8.5t-8 -20.5t8.5 -20.5t20.5 -8.5z" />
    <glyph glyph-name="comment" unicode="&#xe608;" 
d="M510.5 727q-92.5 0 -171 -40.5t-124.5 -111t-46 -152.5q0 -84 49 -156t134 -112q2 -6 -14 -37q-6 -12 -8 -17t-5 -14.5t-2 -16t5 -12.5q10 -15 32 -15q38 0 242 82q9 3 17.5 6.5t16 6.5t9.5 4q95 36 152.5 112t57.5 168q-2 83 -48.5 153t-125 111t-171 41zM618 570
q15 0 27 -11.5t12 -27.5t-11.5 -27.5t-27.5 -11.5q-17 0 -28 11t-11 28q1 16 12 27.5t27 11.5zM401 570q16 0 27.5 -11.5t11.5 -27.5t-11.5 -27.5t-27.5 -11.5t-27.5 11t-11.5 28q0 16 11 27.5t28 11.5zM510 200q-80 0 -136.5 56t-56.5 137h386q0 -79 -56.5 -136t-136.5 -57
z" />
    <glyph glyph-name="cashier" unicode="&#xe609;" 
d="M800 592h-122v57q0 15 -11 26t-27 13q-15 0 -26.5 -11t-11.5 -27v-56h-37v94q0 15 -11 26t-26.5 11t-26.5 -11t-11 -26v-94h-38v55q0 15 -11 26t-26 13q-16 0 -27 -11t-11 -27v-56h-37v17q0 15 -11 26.5t-27 12.5q-15 0 -26 -11t-11 -26v-17h-60q-15 0 -24.5 -10.5
t-9.5 -24.5v-348q0 -12 10.5 -23t23.5 -11h102q16 -58 74.5 -97t133.5 -39q73 0 133 39.5t76 96.5h93q15 0 25 10.5t10 23.5v347q-29 34 -52 32zM763 247h-51v23q0 15 -11.5 26t-26.5 11t-26 -11t-11 -26v-21h-415v277h541v-279zM464 375v-13h-51q-17 0 -20 -4q-9 -8 -9 -17
q0 -13 3 -17q6 -5 21 -5h51v-46q0 -8 9 -14q3 -3 20 -3t21 5q8 9 8 12v48h60q12 0 12 3q3 5 3 17q0 10 -5.5 16.5t-14.5 6.5h-60v11l72 103q1 3 3.5 7t3.5 6t1 4q0 6 -12 14q-8 3 -20 3q-9 0 -17 -14l-60 -85l-63 85q-6 9 -17 9q-12 0 -21 -4q-8 -8 -8 -13q0 -9 3 -12z" />
    <glyph glyph-name="administration" unicode="&#xe60a;" 
d="M312 609q-45 52 -45 92q-1 24 23 24h447q35 0 18 -48q-11 -33 -40 -68l-27 -30q-15 -18 -33.5 -29t-31.5 -11h-219q-13 0 -31 11t-33 29zM732 159l-24 22q14 14 14 34q0 19 -13.5 32.5t-32.5 13.5h-4q0 14 -7.5 24.5t-19.5 19.5t-25.5 21t-26 35t-20.5 55h41
q22 0 37 13.5t15 33.5q0 19 -15.5 32.5t-36.5 13.5h-206q-22 0 -36.5 -13.5t-14.5 -32.5q0 -20 15 -33.5t36 -13.5h41q-7 -32 -20 -55t-26 -35t-25.5 -21t-20 -19.5t-7.5 -24.5h-2q-19 0 -32.5 -13.5t-13.5 -32.5q0 -20 14 -34l-24 -22q-55 -50 -59 -89q-2 -27 30 -27h495
q43 0 29 41q-12 35 -55 75z" />
    <glyph glyph-name="goods" unicode="&#xe60b;" 
d="M783 725h-542q-30 0 -50 -20t-20 -50v-542q0 -30 20 -50t50 -20h542q30 0 50 20t20 50v542q0 30 -20.5 50t-49.5 20zM734 172.5q0 -6.5 -4.5 -11t-10.5 -4.5h-405q-6 0 -10.5 4.5t-4.5 11t4.5 11t10.5 4.5h406q5 0 9.5 -4.5t4.5 -11zM722 531q-13 -79 -72.5 -131
t-137.5 -52t-137.5 51.5t-70.5 129.5v2h-2q-17 11 -17 27q0 14 9.5 23.5t22.5 9.5q14 0 23.5 -10t9.5 -23q0 -14 -12 -26l-2 -1v-2q10 -64 59.5 -106t114.5 -42t114.5 42t59.5 106v2l-1 1q-12 10 -12 26q0 14 9.5 23.5t22.5 9.5q14 0 23.5 -10t9.5 -23q2 -16 -14 -27z" />
    <glyph glyph-name="calendar" unicode="&#xe60c;" 
d="M413 317h-97v98h97v-98zM561 415h-97v-98h97v98zM708 415h-97v-98h97v98zM413 273h-97v-97h97v97zM561 273h-97v-97h97v97zM708 273h-97v-97h97v97zM744 613q0 -13 -9 -22t-21.5 -9t-21.5 9t-9 22v75q0 13 9 22t21.5 9t21.5 -9t9 -22v-75zM338 688q0 13 -9 22t-22 9
t-22 -9t-9 -22v-75q0 -13 9 -22t22 -9t22 9t9 22v75zM782 645v-31q0 -27 -19.5 -46.5t-47.5 -19.5q-27 0 -46.5 19.5t-19.5 46.5v31h-274v-31q0 -27 -19 -46.5t-47 -19.5q-27 0 -47 19.5t-20 46.5v31h-71v-596h682v596h-71zM785 116h-549v369h549v-369z" />
    <glyph glyph-name="marketing" unicode="&#xe60d;" 
d="M662 674q15 0 24 -7q7 -7 7 -17q0 -24 -26 -48q-16 -15 -41 -25t-46 -10l-12 1q-4 10 6 36.5t32 45.5q21 24 56 24zM662 725q-49 0 -92 -37q-38 -34 -51 -82t13 -74q18 -15 48 -15q31 0 65 14t58 36q35 32 40.5 73t-21.5 65q-26 20 -60 20zM398 674q31 0 58 -24
q22 -19 32 -46.5t5 -35.5q-3 -1 -13 -1q-21 0 -46 10t-41 25q-26 24 -26 48q0 10 7 17t24 7zM398 725q-35 0 -58 -20q-27 -26 -21.5 -66t39.5 -72q25 -22 59 -36t64 -14t48 15q25 28 12 75t-49 81q-46 37 -94 37zM795 492q0 44 -37 44h-227v-227h266zM529 270v-227h227
q21 0 29.5 8.5t8.5 28.5v190h-265zM492 309v227l-216 5q-20 0 -35.5 -14.5t-15.5 -34.5v-183h267zM225 266v-174q0 -20 15 -34.5t36 -14.5h216v227z" />
    <glyph glyph-name="photo" unicode="&#xe60e;" 
d="M778 674q0 10 -6.5 17t-17.5 7h-559q-11 0 -17.5 -7t-6.5 -17v-438q0 -11 6.5 -17.5t17.5 -6.5h20q10 0 17 6.5t7 17.5v366q0 11 7 17.5t17 6.5h491q11 0 17.5 7t6.5 17v24zM824 580h-512q-12 0 -20.5 -8t-8.5 -21v-454q0 -12 8.5 -20.5t20.5 -8.5h512q12 0 20.5 8.5
t8.5 20.5v454q-1 12 -9 20.5t-20 8.5zM766 154h-397v141l85 86l142 -142l85 85l85 -85v-85zM710 381q-23 0 -39.5 16.5t-16.5 39.5t16.5 39.5t39.5 16.5t39.5 -16.5t16.5 -39.5t-16 -39.5t-40 -16.5z" />
    <glyph glyph-name="system" unicode="&#xe60f;" 
d="M836 454l-85 77v112q0 19 -13 32t-31 13t-31.5 -13.5t-13.5 -31.5v-35l-111 100q-16 17 -40 17t-42 -17l-281 -247q-17 -17 -17 -39.5t17 -39.5l77 -30v-227q0 -23 16.5 -40t39.5 -17h377q23 0 39.5 17t16.5 40v218l82 32q17 17 17 39t-17 40zM614 440q15 0 25.5 -10
t10.5 -26q0 -14 -10.5 -24.5t-25.5 -10.5q-14 0 -24.5 10t-10.5 25q0 16 10 26t25 10zM410 440q14 0 24.5 -10t10.5 -26q0 -14 -10 -24.5t-25 -10.5t-25.5 10t-10.5 25q1 16 11.5 26t24.5 10zM683 244q-33 -42 -77.5 -68t-93.5 -26q-48 0 -92.5 25.5t-76.5 66.5q-6 8 -5 18
t8 16q6 6 14 6q13 0 19 -9q51 -65 131 -65q82 0 133 65q9 11 19 9q9 0 14 -6q9 -4 10.5 -14t-3.5 -18zM683 244z" />
    <glyph glyph-name="membership" unicode="&#xe610;" 
d="M788.5 249q-33.5 0 -57.5 24t-24 58v4l-47 10q-16 -49 -56 -75l39 -67q14 4 24 4q34 0 58 -24t24 -58t-23.5 -58t-58.5 -24q-33 0 -57.5 23.5t-24.5 58.5q0 41 33 64l-38 67q-25 -9 -51 -9q-56 0 -99 43l-89 -72q11 -17 11 -39q0 -33 -24 -57.5t-58 -24.5t-58 24t-24 58
t23.5 58t58.5 24q32 0 54 -22l91 70q-22 36 -22 75q0 48 30 87l-106 106q-20 -16 -47 -16q-34 0 -58 24t-24 58t23.5 58t58.5 24q33 0 57.5 -23.5t24.5 -58.5q0 -27 -16 -47l106 -106q38 32 89 32q19 0 34 -5l22 55q-19 10 -31 29.5t-12 41.5q0 34 24 58t58 24t58 -23.5
t24 -58.5q0 -33 -23.5 -57.5t-58.5 -24.5q-10 0 -15 2l-22 -54q35 -17 56.5 -51t21.5 -74v-14l46 -10q9 23 29.5 37t45.5 14q34 0 58 -23.5t24 -58.5q0 -33 -24 -56.5t-57.5 -23.5zM613 123q0 -23 15.5 -39t38.5 -16t39 16t16 39t-16 38.5t-39 15.5t-38.5 -15.5t-15.5 -38.5
zM270 234q-23 0 -39 -16t-16 -39t16 -38.5t39 -15.5t38.5 15.5t15.5 38.5q0 22 -16 38.5t-38 16.5zM270 698q-23 0 -39 -16t-16 -39t16 -38.5t39 -15.5t38.5 15.5t15.5 38.5t-15.5 39t-38.5 16zM625 589q23 0 38.5 15.5t15.5 38.5t-15.5 39t-38.5 16t-39 -16t-16 -39
t16 -38.5t39 -15.5zM529 492q-45 0 -77 -32.5t-32 -77.5t32 -77t77 -32t77 32t32 77q0 46 -31.5 78t-77.5 32zM788.5 384q-23.5 0 -39 -16t-15.5 -39t15.5 -38.5t39 -15.5t39 15.5t15.5 38.5t-15.5 39t-39 16zM529 505q-50 0 -85.5 -35.5t-35.5 -85.5t35.5 -85.5t85.5 -35.5
t85.5 35.5t35.5 85.5t-35.5 85.5t-85.5 35.5zM596 317h-133v4q0 13 19 27.5t30 16.5q0 4 2 5q-1 1 -3.5 4.5t-4.5 7.5t-3 9q-3 3 -5 7q-5 5 0 13q0 23 7 31q9 9 24 9t24 -9q7 -8 7 -31q5 -5 1 -15q-1 -3 -5 -7q0 -4 -2.5 -8.5t-4.5 -8t-3 -3.5q0 -4 2 -5q11 -2 30 -16.5
t19 -28.5v-2h-1z" />
    <glyph glyph-name="jiankong" unicode="&#xe611;" 
d="M515 768q-99 0 -182 -45t-131 -122t-48 -168.5t48 -168.5t131 -122t181.5 -45t181.5 45t131.5 122t48.5 168.5t-49 168.5t-132 122t-180 45zM514.5 200q-103.5 0 -177 68.5t-73.5 164.5t73.5 164.5t177 68.5t177 -68.5t73.5 -164.5t-73.5 -164.5t-177 -68.5zM514.5 630
q-87.5 0 -149.5 -57.5t-62 -138.5t62 -138.5t149.5 -57.5t149.5 57.5t62 138.5t-62 138.5t-149.5 57.5zM515 276q-70 0 -119 46t-49 111q0 64 49 110t118.5 46t119.5 -46t50 -110.5t-50 -110.5t-119 -46zM424 433q1 32 23.5 55t54.5 25v39q-51 -3 -86.5 -37t-37.5 -82h46z
M895 49q-1 7 -25 29t-57 42.5t-54 20.5q-17 0 -57.5 -17.5t-92 -35.5t-94.5 -18q-42 0 -96 18t-99 35.5t-64 17.5q-22 0 -53.5 -20t-53 -42t-21.5 -30v-49h151v9h467v-9h149q1 35 0 49z" />
    <glyph glyph-name="weihu" unicode="&#xe612;" 
d="M854 572l-40 -40q-31 -31 -76 -31t-76.5 31.5t-31.5 76t32 76.5l39 39q18 17 7.5 31.5t-39.5 9.5q-80 -12 -128 -77.5t-35 -146.5q0 -5 2 -10l-329 -330q-33 -30 -35 -74t27.5 -77t74 -35t77.5 27l336 337q80 -17 148 27t85 124q1 2 1.5 5.5t1.5 4.5q4 29 -10.5 39
t-30.5 -7zM280 100q-10 -11 -25 -11t-25.5 10.5t-10.5 25.5t10.5 26t24.5 11t25 -11q11 -10 11.5 -25t-10.5 -26zM244 566l125 -124l51 51l-126 124l-28 52l-87 64l-51 -51l63 -88zM659 303q-5 6 -12.5 6t-12.5 -6l-76 -75q-6 -5 -6 -12.5t6 -13.5l179 -179q21 -21 50.5 -21
t51 21t21.5 50.5t-22 50.5z" />
    <glyph glyph-name="gerenzhongxin" unicode="&#xe613;" 
d="M201 93q1 88 49 161.5t128 109.5q63 -36 134 -36q74 0 134 41q80 -36 128 -109.5t49 -160.5q0 -27 -34.5 -48.5t-89 -32t-121 -16t-133 -1t-121 15t-89 31t-34.5 45.5zM658 420q-27 -29 -68 -48q-8 -1 -24 -5.5t-29 -7t-25 -2.5t-26 2.5t-32 7t-25 5.5q-38 15 -68 48
q-32 26 -46 68q-15 37 -15 77.5t15 78.5q14 36 46 68q33 27 67 41q40 15 83 15q41 0 78 -15q33 -17 68 -41q29 -28 47 -68q15 -38 15 -78.5t-15 -77.5q-16 -42 -46 -68z" />
    <glyph glyph-name="yinxiao" unicode="&#xe614;" 
d="M682 710q14 0 26 -7q8 -8 8 -18q-3 -34 -29 -54q-40 -37 -97 -41q-9 0 -14 1q-5 11 6.5 41t35.5 52q27 26 64 26zM682 768q-58 -2 -105 -42q-41 -38 -56 -91.5t14 -84.5q23 -18 54 -16q80 4 138 56q40 37 46 82t-24 74q-32 24 -67 22zM385 710q37 -2 66 -28
q24 -22 35.5 -52t6.5 -40q-10 -2 -16 -2q-55 4 -98 40q-26 23 -28 54q-3 12 6 18q12 12 28 10zM384 768q-36 2 -65 -23q-31 -29 -25 -74.5t46 -81.5q59 -53 139 -57q29 -1 53 17q29 30 14.5 83.5t-56.5 91.5q-45 42 -106 44zM832 504q0 52 -42 52h-256v-256h298v204z
M534 256v-256h256q23 0 32.5 9.5t9.5 32.5v214h-298zM490 298v256l-242 5q-23 0 -39.5 -16t-16.5 -40v-205h298zM192 252v-196q0 -23 17 -39.5t41 -16.5h242v256z" />
    <glyph glyph-name="caidan-" unicode="&#xe615;" 
d="M192 627h640v-51h-640v51zM192 410h640v-52h-640v52zM192 192h640v-51h-640v51z" />
    <glyph glyph-name="shuaxin-" unicode="&#xe616;" 
d="M513 189v33q39 0 47 1q60 6 101 52t41 109q0 68 -46 115.5t-111.5 47.5t-111.5 -47.5t-46 -114.5h-32q0 80 55.5 137t134 57t133.5 -57t55 -137q0 -76 -49.5 -132t-122.5 -63h-48v-1zM513 222v0q7 0 11.5 -4.5t4.5 -11.5t-4.5 -11.5t-11.5 -4.5t-11.5 4.5t-4.5 11.5v0
q0 7 4.5 11.5t11.5 4.5zM292 385h158l-79 -98z" />
  </font>
</defs>
</svg>
